<?xml version="1.0"?>
<svg xmlns="http://www.w3.org/2000/svg" id="Layer_35" enable-background="new 0 0 64 64" height="512px" viewBox="0 0 64 64" width="512px" class=""><g><path d="m57 12c-.028 0-.054.008-.082.008-.473-2.841-2.942-5.008-5.918-5.008-.855 0-1.667.182-2.403.504-1.049-3.195-4.051-5.504-7.597-5.504-4.418 0-8 3.582-8 8 0 .693.088 1.365.254 2.006l.02.021c-.093-.005-.18-.027-.274-.027-2.761 0-5 2.239-5 5s2.239 5 5 5h24c2.761 0 5-2.239 5-5s-2.239-5-5-5z" data-original="#000000" class="active-path" data-old_color="#000000" fill="#FFFFFF"/><path d="m20.618 51-2 4h18.764l-2-4z" data-original="#000000" class="active-path" data-old_color="#000000" fill="#FFFFFF"/><path d="m29.839 23.237c-.528.792-.839 1.742-.839 2.763 0 2.757 2.243 5 5 5s5-2.243 5-5c0-.712-.154-1.386-.424-2h-2.356c.48.532.78 1.229.78 2 0 1.654-1.346 3-3 3s-3-1.346-3-3c0-.818.331-1.559.863-2.101-.717-.118-1.398-.343-2.024-.662z" data-original="#000000" class="active-path" data-old_color="#000000" fill="#FFFFFF"/><path d="m41 57h-26c-1.654 0-3 1.346-3 3v1h32v-1c0-1.654-1.346-3-3-3z" data-original="#000000" class="active-path" data-old_color="#000000" fill="#FFFFFF"/><path d="m26.295 19h-.851l-.791.791 1.296 2.159-.503 1.22-2.446.611v4.438l2.449.611.5 1.22-1.296 2.159 3.138 3.139 2.158-1.296 1.142.464.203.535.487 1.949h4.438l.612-2.452 1.22-.496 2.158 1.296 3.138-3.139-1.296-2.159.466-1.139.534-.205 1.949-.487v-4.219h-4.295c.19.634.295 1.305.295 2 0 3.859-3.14 7-7 7s-7-3.141-7-7c0-1.45.444-2.798 1.202-3.917-.883-.834-1.551-1.89-1.907-3.083z" data-original="#000000" class="active-path" data-old_color="#000000" fill="#FFFFFF"/><circle cx="34" cy="26" r="1" data-original="#000000" class="active-path" data-old_color="#000000" fill="#FFFFFF"/><path d="m51 45c0 1.103-.897 2-2 2h-42c-1.103 0-2-.897-2-2v-26c0-1.103.897-2 2-2h19c0-.697.118-1.364.309-2h-20.309c-1.654 0-3 1.346-3 3v28c0 1.654 1.346 3 3 3h44c1.654 0 3-1.346 3-3v-22h-2z" data-original="#000000" class="active-path" data-old_color="#000000" fill="#FFFFFF"/><path d="m7 19v26h42v-21h-2v5.781l-2.416.603 1.281 2.136-5.347 5.346-2.134-1.281-.603 2.415h-7.562l-.603-2.416-2.134 1.281-5.347-5.346 1.281-2.136-2.416-.602v-7.562l2.416-.603-1.281-2.136.48-.48zm26 22h2v2h-2zm-4 0h2v2h-2zm-12-20h2v2h-2zm-4 0h2v2h-2zm-4 0h2v2h-2zm0 4h10v2h-10zm0 4h10v2h-10zm0 4h10v2h-10zm0 4h10v2h-10zm18 4v2h-18v-2z" data-original="#000000" class="active-path" data-old_color="#000000" fill="#FFFFFF"/></g> </svg>
