<?xml version="1.0" encoding="utf-8"?>
<!-- Generator: Adobe Illustrator 24.0.1, SVG Export Plug-In . SVG Version: 6.00 Build 0)  -->
<svg version="1.1" id="Layer_1" xmlns="http://www.w3.org/2000/svg" xmlns:xlink="http://www.w3.org/1999/xlink" x="0px" y="0px"
	 viewBox="0 0 595.3 841.9" style="enable-background:new 0 0 595.3 841.9;" xml:space="preserve">
<style type="text/css">
	.st0{fill:#FFFFFF;}
	.st1{fill:#DCDCDC;}
</style>
<g>
	<path class="st0" d="M221,326.1c13.8-0.4,27.8-1.2,41,3.9c24.2,9.1,39.2,26.3,43.9,51.9c4.1,22.2-2.5,41.6-17.6,57.8
		c-12,12.8-27.4,19.8-45.3,20.2c-7.3,0.1-14.7,0.1-22,0.1c-1.9-1.8-1.7-4.3-1.7-6.6c0-40.2,0-80.5,0-120.7
		C219.4,330.4,219.1,328,221,326.1z"/>
	<path class="st1" d="M220,61.9c2.5-0.8,2.2,1.7,2.7,2.7c19.8,39.4,39.5,78.8,59.2,118.3c10.8,21.7,21.6,43.4,32.5,65.1
		c0.6,1.1,1,2.3,1.7,3.8c-32,0-63.6,0-95.2,0c-2.9-1.7-2.5-4.5-2.5-7.1c-0.1-13.2,0-26.3,0-39.5c0-44,0-87.9,0-131.9
		C218.4,69.3,218.6,65.5,220,61.9z"/>
	<path class="st1" d="M220,326.1c0,44.6,0,89.2,0.1,133.9c0,17.8-0.1,35.6,0,53.5c0,3.5-0.8,4.5-4.4,4.4c-13.2-0.2-26.3-0.2-39.5,0
		c-3,0-4.3-0.4-4.3-4C172,452.4,172,391,172,329.5c0-2.2,0-3.7,3-3.6C190,326.1,205,326.1,220,326.1z"/>
	<path class="st0" d="M220,61.9c0,61.1,0,122.3,0,183.4c0,2.1-0.4,4.4,0.9,6.3c-31.8,0-63.6,0-96,0c2.3-4.7,4.5-9.2,6.7-13.6
		c28.8-57.6,57.7-115.3,86.5-172.9C218.6,64,219.4,62.9,220,61.9z"/>
</g>
</svg>
